<svg xmlns="http://www.w3.org/2000/svg" viewBox="0 0 258.97 109.55"><defs><style>.cls-1{fill:red;}.cls-2{fill:#e6e6e6;}</style></defs><title>beta</title><g id="Laag_2" data-name="Laag 2"><g id="Laag_1-2" data-name="Laag 1"><rect class="cls-1" x="1.52" y="33.13" width="256.4" height="41.31" transform="matrix(0.97, -0.25, 0.25, 0.97, -9.39, 34.55)"/><polygon class="cls-2" points="0 71.83 47.57 99.69 9.86 109.55 0 71.83"/><polygon class="cls-2" points="254.7 37.72 207.13 9.86 244.84 0 254.7 37.72"/><polyline class="cls-2" points="37.27 52.8 95.79 80.71 117.68 74.99 63.02 46.07 38.25 52.55"/><polyline class="cls-2" points="96.07 47.09 154.59 75 176.47 69.28 121.82 40.36 97.04 46.83"/><polyline class="cls-2" points="149.93 23.35 208.45 51.26 230.34 45.54 175.68 16.62 150.91 23.1"/><path d="M36.9,87.1a4.25,4.25,0,0,1-.24,2.49,4,4,0,0,1-1.21,1.6,2,2,0,0,1-1.35.49c-.44,0-.68-.33-.74-.91-.06-.39-.13-1-.22-1.89s-.22-1.74-.39-2.62A19.88,19.88,0,0,0,32.2,84c-.19-.61-.42-.86-.69-.74s-.48.56-.65,1.3a13.61,13.61,0,0,0-.26,2.69c0,1,0,2.17.14,3.36a19.15,19.15,0,0,0,.58,3.31,8.35,8.35,0,0,0,1.11,2.53,2.09,2.09,0,0,0,1.74,1A3.34,3.34,0,0,0,37.07,96a12.76,12.76,0,0,0,1.76-3.52,23.52,23.52,0,0,0,.94-3.88,26.27,26.27,0,0,0,.32-2.66,1.36,1.36,0,0,1,.42-1,1.55,1.55,0,0,1,.83-.37,1.07,1.07,0,0,1,.82.26,1.21,1.21,0,0,1,.42,1c0,.31,0,.86-.06,1.66a21.71,21.71,0,0,1-.3,2.74,25.11,25.11,0,0,1-.75,3.23,13.75,13.75,0,0,1-1.39,3.22,10.62,10.62,0,0,1-2.24,2.68,7.87,7.87,0,0,1-3.33,1.62,5.6,5.6,0,0,1-4.34-.59,8.24,8.24,0,0,1-2.91-3.23,14,14,0,0,1-1.45-4.71,18.4,18.4,0,0,1,0-5.08A12.43,12.43,0,0,1,27.11,83a4.46,4.46,0,0,1,7.28-1.08A9.66,9.66,0,0,1,36.9,87.1Z"/><path d="M36.63,68.8a2.8,2.8,0,0,1,.26-2.58,3,3,0,0,1,1.81-1.13,3.26,3.26,0,0,1,2.09.24A1.86,1.86,0,0,1,41.87,67c.06.58.22,1.7.45,3.38s.56,3.6,1,5.75.84,4.39,1.32,6.69,1,4.43,1.49,6.35a35.51,35.51,0,0,0,1.52,4.66c.5,1.19,1,1.71,1.44,1.58.28-.07.52-.69.72-1.84s.38-2.44.5-3.87.23-2.82.31-4.16.14-2.21.17-2.62a1.14,1.14,0,0,1,.4-1,1.5,1.5,0,0,1,.91-.36,1.44,1.44,0,0,1,.89.27,1.06,1.06,0,0,1,.39,1c0,1,0,2.4,0,4.2a39.44,39.44,0,0,1-.38,5.4,18.86,18.86,0,0,1-1.32,4.93,4.5,4.5,0,0,1-3,2.76,3.12,3.12,0,0,1-3.35-1.2,16.92,16.92,0,0,1-2.68-4.68,51.1,51.1,0,0,1-2.12-6.73q-.93-3.78-1.64-7.43c-.47-2.43-.89-4.66-1.24-6.68S36.91,69.82,36.63,68.8Z"/><path d="M60,91.63a6.29,6.29,0,0,1-4.46-.18,7.09,7.09,0,0,1-3-2.68A11.07,11.07,0,0,1,51,84.63a12.93,12.93,0,0,1,0-4.52,9.54,9.54,0,0,1,1.59-3.84,5.14,5.14,0,0,1,3.3-2.11,6.68,6.68,0,0,1,4.36.37,7.87,7.87,0,0,1,3.12,2.64,11,11,0,0,1,1.73,4,10.62,10.62,0,0,1,.12,4.34,8.88,8.88,0,0,1-1.67,3.82A6.51,6.51,0,0,1,60,91.63Zm0-3.37a1.33,1.33,0,0,0,1-1.07,5.91,5.91,0,0,0,.12-2.28,16.84,16.84,0,0,0-.6-2.86,14.26,14.26,0,0,0-1.14-2.75,7.75,7.75,0,0,0-1.48-2,1.64,1.64,0,0,0-1.56-.53,1.41,1.41,0,0,0-1,1.15,6.64,6.64,0,0,0-.16,2.29A14.75,14.75,0,0,0,55.8,83a13.66,13.66,0,0,0,1,2.7,7.16,7.16,0,0,0,1.44,2A1.89,1.89,0,0,0,60,88.26Z"/><path d="M75.22,69.79a1.87,1.87,0,0,1,1.8-.5,3.67,3.67,0,0,1,1.77,1A2.77,2.77,0,0,1,79.6,72a1.79,1.79,0,0,1-1.07,1.68l-2.17,1.2q-1.14.61-2.16,1.11l-1.73.89a6.53,6.53,0,0,1-.93.45,12.56,12.56,0,0,1,1.6,0,13.09,13.09,0,0,1,3.22.45,10.94,10.94,0,0,1,3.42,1.56,5.66,5.66,0,0,1,2.27,3.33,5,5,0,0,1-.6,4.31,9,9,0,0,1-3.36,3,8.62,8.62,0,0,1-2.67.74,6.06,6.06,0,0,1-2.53-.23,5.08,5.08,0,0,1-2.13-1.36,5.83,5.83,0,0,1-1.39-2.57,2.73,2.73,0,0,1,.3-2.32,4.21,4.21,0,0,1,1.6-1.49,2.76,2.76,0,0,1,1.86-.29,1.35,1.35,0,0,1,1.07,1.28,5.15,5.15,0,0,0,1.07,3.07c.55.54,1,.76,1.38.66a1.6,1.6,0,0,0,1-.8,2.2,2.2,0,0,0,.16-1.43,4.71,4.71,0,0,0-.77-1.73,8.28,8.28,0,0,0-1.68-1.74,7.71,7.71,0,0,0-2-1.2,15.12,15.12,0,0,0-2.22-.73,13.44,13.44,0,0,0-2.07-.33c-.66,0-1.19,0-1.58,0a1.4,1.4,0,0,1-1.18-.61,3.69,3.69,0,0,1-.7-1.45,2.56,2.56,0,0,1,.16-1.61,1.9,1.9,0,0,1,1.37-1.09,17.93,17.93,0,0,0,4.3-1.9A18.14,18.14,0,0,0,75.22,69.79Z"/><path d="M93.89,71.13a4.72,4.72,0,0,1-1,1.64,9.63,9.63,0,0,1-1.59,1.29,12.25,12.25,0,0,1-1.85,1c-.65.28-1.22.51-1.71.7a25.87,25.87,0,0,0,.54,2.91,14.43,14.43,0,0,0,.83,2.46,6.77,6.77,0,0,0,1.07,1.72,1.87,1.87,0,0,0,1.35.68,2.54,2.54,0,0,0,1.85-.85,8.75,8.75,0,0,0,1.56-2.19,17.93,17.93,0,0,0,1.21-2.95c.34-1.09.63-2.12.86-3.11s.4-1.88.52-2.69a14.4,14.4,0,0,0,.2-1.73,1.31,1.31,0,0,1,.43-1,1.46,1.46,0,0,1,.83-.38,1,1,0,0,1,.81.26,1.21,1.21,0,0,1,.42,1q0,.47,0,1.77a26,26,0,0,1-.25,3,31.5,31.5,0,0,1-.73,3.6,15.35,15.35,0,0,1-1.43,3.61,12.69,12.69,0,0,1-2.39,3.08,8.18,8.18,0,0,1-3.54,2,4.86,4.86,0,0,1-4.36-.66,10,10,0,0,1-3.09-3.86,20.86,20.86,0,0,1-1.73-5.6,25,25,0,0,1-.31-6,15,15,0,0,1,1.15-5,4.22,4.22,0,0,1,2.68-2.61,4.51,4.51,0,0,1,3.26.33,8.37,8.37,0,0,1,2.72,2.13,9.28,9.28,0,0,1,1.66,2.9A3.74,3.74,0,0,1,93.89,71.13Zm-6-5c-.29.22-.47.91-.55,2a34.33,34.33,0,0,0,0,4.07,7.49,7.49,0,0,0,1.48-.59,1.73,1.73,0,0,0,.91-1,2.7,2.7,0,0,0,0-1.31,8.29,8.29,0,0,0-.48-1.62,5.43,5.43,0,0,0-.73-1.29C88.25,66.09,88,66,87.88,66.15Z"/><path d="M104.6,49.05a2.78,2.78,0,0,1,.26-2.57,3,3,0,0,1,1.78-1.13,3.16,3.16,0,0,1,2,.26,1.87,1.87,0,0,1,1.09,1.64q.09.87.45,3.27c.24,1.61.54,3.45.9,5.55s.76,4.24,1.22,6.45,1,4.25,1.46,6.1a35.66,35.66,0,0,0,1.5,4.48c.49,1.13,1,1.64,1.42,1.51s.74-.63,1-1.53a25.15,25.15,0,0,0,.53-3.1c.13-1.16.21-2.27.23-3.35s0-1.86,0-2.35a1.52,1.52,0,0,1,.4-1.12,1.34,1.34,0,0,1,.86-.39,1.4,1.4,0,0,1,.91.31,1.44,1.44,0,0,1,.48,1.07c0,.48.08,1.44.12,2.87a23.91,23.91,0,0,1-.31,4.54A14.78,14.78,0,0,1,119.41,76a5.12,5.12,0,0,1-3.26,2.69,2.91,2.91,0,0,1-2.81-.6,10.53,10.53,0,0,1-2.29-3,8.31,8.31,0,0,1-.84,2.78,5.7,5.7,0,0,1-1.9,2.16,3.94,3.94,0,0,1-2.6.87,5.49,5.49,0,0,1-3.8-1.3,10.94,10.94,0,0,1-2.72-3.51,14.28,14.28,0,0,1-1.4-4.66A13.19,13.19,0,0,1,98,66.71a8.21,8.21,0,0,1,2-3.81A6.57,6.57,0,0,1,104.24,61a4,4,0,0,1,2.84.79q-.83-4-1.41-7.53C105.27,52,104.92,50.21,104.6,49.05Zm3.14,17.59a9.75,9.75,0,0,0-1.06-1.8,1.64,1.64,0,0,0-1.45-.8,2.18,2.18,0,0,0-1.79,1.24,7.35,7.35,0,0,0-.78,2.72,14.86,14.86,0,0,0,.07,3.38,16.83,16.83,0,0,0,.78,3.34,7.85,7.85,0,0,0,1.31,2.47,1.76,1.76,0,0,0,3.2-.47,9.81,9.81,0,0,0,.7-2.88,16.63,16.63,0,0,0-.08-3.64A13.76,13.76,0,0,0,107.74,66.64Z"/><path d="M140.68,75.84c-1.61.3-3.31.55-5.09.77s-3.44.35-5,.4a18.07,18.07,0,0,1-3.88-.23c-1-.21-1.65-.59-1.81-1.15a1.52,1.52,0,0,1,.65-1.59,10.43,10.43,0,0,1,2-1.39,28.63,28.63,0,0,1,3.15-1.32,13.72,13.72,0,0,1,2.56-.45,12.91,12.91,0,0,0,2.57-.44q6.91-.94,13.89-2.57a79.58,79.58,0,0,0,13.59-4.5c.93-.41,2-.92,3.31-1.55a22.26,22.26,0,0,0,3.57-2.18,11.08,11.08,0,0,0,2.68-2.76,4.2,4.2,0,0,0,.68-3.21,4.5,4.5,0,0,0-1.82-2.52,10.16,10.16,0,0,0-3.18-1.51A18,18,0,0,0,165,49a21.64,21.64,0,0,0-3.26-.07c-1.19,0-2.59.11-4.19.26s-3.28.33-5,.57-3.55.49-5.39.77-3.56.6-5.16.94l1,3.47q.36,1.32.75,3.27a24.5,24.5,0,0,1,.47,3.86,11.12,11.12,0,0,1-.32,3.42,2.34,2.34,0,0,1-1.59,1.82.7.7,0,0,1-.74-.24,3.84,3.84,0,0,1-.59-.92,11.48,11.48,0,0,1-.49-1.22,11,11,0,0,0-.42-1.11q-1.72-4.08-3.3-8.46a48.13,48.13,0,0,1-2.32-9.19,12.64,12.64,0,0,1-.21-2.11c0-.79,0-1.55,0-2.29a12.94,12.94,0,0,1,.24-1.85c.11-.51.28-.79.51-.85a1.9,1.9,0,0,1,1.25.21,5.13,5.13,0,0,1,1.55,1.14,12.58,12.58,0,0,1,1.5,1.9,9.25,9.25,0,0,1,1.12,2.57c.2.74.37,1.47.49,2.18a20.5,20.5,0,0,0,.49,2.18,3.65,3.65,0,0,0,.85-.16l2.57-.71q3.12-.85,6.15-1.92A57.84,57.84,0,0,0,156.82,44c1.06-.49,2.31-1.15,3.75-2a28.12,28.12,0,0,0,4.08-2.81,15,15,0,0,0,3.08-3.35,4.34,4.34,0,0,0,.63-3.65,3.28,3.28,0,0,0-1.54-1.93A10.06,10.06,0,0,0,164,29.13a19.92,19.92,0,0,0-3.24-.53,27.73,27.73,0,0,0-2.87-.1,24.57,24.57,0,0,0-5.34.54q-2.72.57-5.15,1.24a89.18,89.18,0,0,0-16,6.12,65,65,0,0,0-14.6,10,2.5,2.5,0,0,1-1.53.84c-.6.09-1-.31-1.26-1.19a5.19,5.19,0,0,1,.35-3.72,13.68,13.68,0,0,1,2.43-3.51,22.69,22.69,0,0,1,3.5-3,41.69,41.69,0,0,1,3.56-2.25,87.46,87.46,0,0,1,10.49-5.17,107.31,107.31,0,0,1,12.81-4.33c1.31-.31,2.8-.61,4.49-.9a46,46,0,0,1,5.25-.59,35.43,35.43,0,0,1,5.45.1,18.43,18.43,0,0,1,5,1.15,11.54,11.54,0,0,1,4,2.56,9.32,9.32,0,0,1,2.42,4.3,7.6,7.6,0,0,1,0,4.07,13.76,13.76,0,0,1-1.82,4,20,20,0,0,1-3,3.55,24.17,24.17,0,0,1-3.48,2.79,29,29,0,0,1,4.16.2,13,13,0,0,1,3.88,1.06,9.6,9.6,0,0,1,3.13,2.27,9.06,9.06,0,0,1,2,3.75,8.55,8.55,0,0,1-.19,5.54,13.85,13.85,0,0,1-3,4.61,23.54,23.54,0,0,1-4.57,3.61,40.4,40.4,0,0,1-4.82,2.57,72.87,72.87,0,0,1-12.26,4.43,132.58,132.58,0,0,1-13.24,2.76Z"/><path d="M192.3,44a4.77,4.77,0,0,1-1,1.63,9.63,9.63,0,0,1-1.59,1.29,12.25,12.25,0,0,1-1.85,1c-.65.28-1.22.51-1.71.7a25.87,25.87,0,0,0,.54,2.91,14.43,14.43,0,0,0,.83,2.46,6.77,6.77,0,0,0,1.07,1.72,1.87,1.87,0,0,0,1.35.68,2.5,2.5,0,0,0,1.85-.85,9,9,0,0,0,1.57-2.19,18.86,18.86,0,0,0,1.2-3c.34-1.09.63-2.12.86-3.11s.4-1.88.53-2.68a16.5,16.5,0,0,0,.19-1.74,1.31,1.31,0,0,1,.43-1,1.46,1.46,0,0,1,.83-.38,1.08,1.08,0,0,1,.82.26,1.24,1.24,0,0,1,.41,1c0,.3,0,.89,0,1.76a24,24,0,0,1-.25,3,31.5,31.5,0,0,1-.73,3.6,15.35,15.35,0,0,1-1.43,3.61,12.93,12.93,0,0,1-2.39,3.09,8.27,8.27,0,0,1-3.54,1.94,4.86,4.86,0,0,1-4.36-.66,9.87,9.87,0,0,1-3.08-3.85A20.7,20.7,0,0,1,181,49.57a25,25,0,0,1-.31-6,15.07,15.07,0,0,1,1.15-5,4.18,4.18,0,0,1,2.68-2.6,4.41,4.41,0,0,1,3.26.33,8.11,8.11,0,0,1,2.72,2.12,9.28,9.28,0,0,1,1.66,2.9A3.76,3.76,0,0,1,192.3,44Zm-6-5c-.28.22-.47.91-.55,2.05a34.33,34.33,0,0,0,0,4.07,6.93,6.93,0,0,0,1.48-.59,1.73,1.73,0,0,0,.91-1,2.7,2.7,0,0,0,0-1.31,8.29,8.29,0,0,0-.48-1.62,5.86,5.86,0,0,0-.73-1.29C186.66,38.91,186.45,38.82,186.29,39Z"/><path d="M194,32.07c-.09-.32-.17-.64-.23-.94s-.12-.58-.18-.81a2.8,2.8,0,0,1,.26-2.58,3,3,0,0,1,1.78-1.12,3.16,3.16,0,0,1,2,.25,1.88,1.88,0,0,1,1.09,1.64l.15,1.9,1.66-.46a3.34,3.34,0,0,1,2-.07,1.31,1.31,0,0,1,.86.81,1.23,1.23,0,0,1-.37,1.11,3.2,3.2,0,0,1-1.62.89l-2.08.58c.27,1.71.62,3.6,1,5.65s.84,4,1.29,5.77a44.21,44.21,0,0,0,1.3,4.42c.41,1.15.78,1.69,1.11,1.6s.54-.6.8-1.57.49-2.06.7-3.29.37-2.42.5-3.58.21-1.94.25-2.34a1.13,1.13,0,0,1,.4-1,1.47,1.47,0,0,1,.9-.36,1.42,1.42,0,0,1,.9.27,1,1,0,0,1,.38,1c0,1-.06,2.31-.11,3.92a30.84,30.84,0,0,1-.55,4.78,15.29,15.29,0,0,1-1.5,4.3,4.82,4.82,0,0,1-3.05,2.48,2.71,2.71,0,0,1-2.44-.45,7.26,7.26,0,0,1-2-2.39,21.79,21.79,0,0,1-1.61-3.78c-.47-1.46-.91-3-1.3-4.57s-.73-3.2-1-4.83-.59-3.14-.87-4.5l-1.67.46a3,3,0,0,1-1.81.05,1.33,1.33,0,0,1-.88-.73,1.11,1.11,0,0,1,.27-1,3.2,3.2,0,0,1,1.69-.91Z"/><path d="M212.63,31a3.69,3.69,0,0,1,2,.43,7.57,7.57,0,0,1,1.64,1.19,2.09,2.09,0,0,1,1.19-1.07,3.52,3.52,0,0,1,1.67-.2,3,3,0,0,1,1.51.63,2,2,0,0,1,.78,1.46c0,.89.16,2,.34,3.27s.41,2.52.69,3.69a17.07,17.07,0,0,0,.93,3c.34.8.7,1.15,1.07,1s.51-.53.71-1.36a27.34,27.34,0,0,0,.48-2.86q.18-1.62.27-3.21a19,19,0,0,0,0-2.39,1.49,1.49,0,0,1,.44-1.13,1.42,1.42,0,0,1,.89-.4,1.38,1.38,0,0,1,.91.31,1.09,1.09,0,0,1,.39,1c0,.31,0,.87,0,1.69s0,1.74-.1,2.75-.18,2.08-.34,3.2a14.25,14.25,0,0,1-.8,3.06,7.08,7.08,0,0,1-1.46,2.31,3,3,0,0,1-2.25.92A4.53,4.53,0,0,1,220,46.7a11.82,11.82,0,0,1-.7,3.44,5.78,5.78,0,0,1-1.95,2.67,4.79,4.79,0,0,1-2.51.92,5.5,5.5,0,0,1-3.88-1.62A12.93,12.93,0,0,1,208.07,48a19.42,19.42,0,0,1-1.55-5.32,16.45,16.45,0,0,1,0-5.39,9.2,9.2,0,0,1,1.91-4.3A5.68,5.68,0,0,1,212.63,31Zm3.74,6.51a11.29,11.29,0,0,0-1.15-2.14,1.72,1.72,0,0,0-1.49-.94A2.1,2.1,0,0,0,212,35.8a8.32,8.32,0,0,0-.69,3.06,20,20,0,0,0,.21,3.87,20.92,20.92,0,0,0,.9,3.78,11.12,11.12,0,0,0,1.39,2.87,1.87,1.87,0,0,0,1.73,1q.94-.11,1.44-1.44a11.77,11.77,0,0,0,.6-3.23,23.23,23.23,0,0,0-.16-4.1A16.45,16.45,0,0,0,216.37,37.53Z"/></g></g></svg>