<svg xmlns="http://www.w3.org/2000/svg" viewBox="0 0 218.23 295.95"><defs><style>.cls-1{fill:#e6e6e6;}.cls-2,.cls-3,.cls-4{fill:none;stroke:#000;stroke-miterlimit:10;}.cls-2,.cls-3{stroke-linecap:round;}.cls-2{stroke-width:9px;}.cls-3{stroke-width:3px;}.cls-4{stroke-width:7px;}.cls-5{fill:#eaab6c;}.cls-6{fill:#d69e6b;}.cls-7{fill:#edc5a2;}</style></defs><title>timetool</title><g id="Laag_2" data-name="Laag 2"><g id="Laag_1-2" data-name="Laag 1"><circle class="cls-1" cx="117.02" cy="167.19" r="91.95"/><line class="cls-2" x1="114.48" y1="170.55" x2="165.59" y2="221.67"/><line class="cls-2" x1="113.06" y1="167.19" x2="159.25" y2="126.08"/><line class="cls-3" x1="121.61" y1="83.56" x2="121.61" y2="98.4"/><line class="cls-3" x1="200.05" y1="165.48" x2="185.21" y2="165.48"/><line class="cls-3" x1="48.25" y1="170.19" x2="33.41" y2="170.19"/><circle class="cls-4" cx="117.02" cy="167.19" r="91.95"/><path class="cls-5" d="M182,156.41s-25.25-15.88-56.46-17-13.62,17.88,11.06,23.27S182,156.41,182,156.41Z"/><path class="cls-5" d="M129,238.35s3.84,14.31,2,16.54c-6.46,1.43-12.61,2.39-23.59,1.27S124.29,228.49,129,238.35Z"/><path class="cls-6" d="M96.22,98.08S83.77,68.81,72.35,68.21,68.14,106,61.69,112.65"/><path class="cls-5" d="M57.47,178.55S74.22,207.13,55.34,213s61.13,8.22,61.13,8.22-4-36.36,10.78-37"/><path class="cls-5" d="M74,99.62S50.07,78.61,39.51,83s12.56,35.92,9.6,44.67"/><ellipse class="cls-5" cx="96.22" cy="141.06" rx="53.67" ry="49.04"/><path class="cls-7" d="M119,143s46.25,22.47,63,13.39c3.4,3.69,4.12,38.6-79.65,35.33S48,121.43,48,121.43"/><path class="cls-5" d="M85.12,151.73s-37.45,16.92-33.45,21.11c-17.05-11.3-9.81-52-1.73-54.84s34.47,33.73,34.47,33.73Z"/><path class="cls-5" d="M143.22,152.79S85,144.38,60.44,163.39c1.28-9.79-21.28-52.2,0-49.22S143.22,152.79,143.22,152.79Z"/><path class="cls-5" d="M125.5,231.36s11.78,14.56-5.25,22.71-35.13-22.71-35.13-22.71Z"/><path class="cls-7" d="M115.43,210.41s14.47,11.63,9.36,23c2,6.24-3.69,24.39-9.36,12.76.57,7.1-8.54,10.5-8.54,10.5s-49.62-4.54-49.33-23.12c-9.46-6.81-15.1-17.7-4.72-19.42S115.43,210.41,115.43,210.41Z"/><path class="cls-7" d="M51.26,214.49s31.83-1,40.91-22.53,26.45,0,26.45,0-5.36,25.59-2.15,29.25"/><path class="cls-7" d="M55.34,167.68s-14.24-21.85-3.46-23.89,21.31,9.52,36.05,9.13-21.7,16.35-32.59,17.48C51.26,170.83,55.34,167.68,55.34,167.68Z"/><circle cx="100.16" cy="127.68" r="6.73"/><path d="M173.22,151.73s-6.93,3.17-6.17,6.63,15.52,2.43,15.62-.79S173.22,151.73,173.22,151.73Z"/><path class="cls-6" d="M29.62,19.31S35.7,7.63,45,8.57c1.4,4.2,2.81,13.55-2.8,15.42S28.22,21.65,29.62,19.31Z"/><path class="cls-6" d="M19.9,18.12S13.83,6.44,4.48,7.37c-1.4,4.21-2.8,13.55,2.81,15.42S21.31,20.46,19.9,18.12Z"/><path class="cls-5" d="M43.91,32.21c0,2.77,3.4,6.94,2.39,9.34-3,7.2-14.15,10.73-22.46,10.73C15,52.28,2.9,48.23.18,40.36c-.71-2.06,3.58-5.86,3.58-8.15a20.08,20.08,0,1,1,40.15,0Z"/><path class="cls-7" d="M45.5,36.78c1.59,2.78,1.81,3.49.8,5.43C43.25,48,32.35,52.68,24,52.68,15.24,52.68,2.9,47.61.18,41.25c-.71-1.66.8-3.66,2-5.27C9,36,16.5,33.78,23.24,34,30.71,34.26,40.07,36.78,45.5,36.78Z"/><circle cx="32.58" cy="28.63" r="1.79"/><circle cx="13.5" cy="28.63" r="1.79"/><ellipse cx="23.42" cy="34.92" rx="3.58" ry="2.58" transform="translate(-1.25 0.87) rotate(-2.07)"/><path d="M92.77,38A42.83,42.83,0,0,0,96.83,30c1-2.77,2-5.57,2.78-8.4S101.2,15.87,102,13s1.66-5.71,2.71-8.51a8.83,8.83,0,0,1,.39-1c.21-.5.45-1,.71-1.5a7.7,7.7,0,0,1,.89-1.35A1.4,1.4,0,0,1,107.73,0a1.11,1.11,0,0,1,.93.5,3.52,3.52,0,0,1,.53,1.24,9.13,9.13,0,0,1,.22,1.68,14.87,14.87,0,0,1,0,1.78,93.17,93.17,0,0,1-3.77,18.88A72.34,72.34,0,0,1,97.05,42a27.9,27.9,0,0,1-3,3.74,25.28,25.28,0,0,1-3.78,3.24A19.32,19.32,0,0,1,86,51.22a13,13,0,0,1-4.67.85A13.94,13.94,0,0,1,73.75,50a22,22,0,0,1-5.91-5.52,36.12,36.12,0,0,1-4.38-7.73,63.62,63.62,0,0,1-3-8.69,70.19,70.19,0,0,1-1.67-8.44,54.34,54.34,0,0,1-.53-7c0-.29,0-.82.07-1.61a15.42,15.42,0,0,1,.32-2.38,8.4,8.4,0,0,1,.71-2.14,1.55,1.55,0,0,1,1.18-1h.28c.38,0,.67.28.86.82a8.38,8.38,0,0,1,.39,2c.07.76.1,1.56.1,2.39v2.1a44.54,44.54,0,0,0,.54,6.48,61.36,61.36,0,0,0,1.57,7.41A51.47,51.47,0,0,0,67,34a33.66,33.66,0,0,0,3.71,6.48,19.11,19.11,0,0,0,4.7,4.6,10.07,10.07,0,0,0,5.73,1.74A7.93,7.93,0,0,0,84.58,46a15,15,0,0,0,3.24-2.1A19.22,19.22,0,0,0,90.6,41,36.31,36.31,0,0,0,92.77,38Z"/><path d="M120.77,34.33a4.53,4.53,0,0,1-1.43,1.29,9.7,9.7,0,0,1-1.85.82,11.7,11.7,0,0,1-2,.46c-.69.1-1.29.17-1.81.21A22.87,22.87,0,0,0,113.4,40a13.78,13.78,0,0,0,.14,2.57,6.61,6.61,0,0,0,.57,1.92,1.82,1.82,0,0,0,1.1,1,2.51,2.51,0,0,0,2-.32,8.46,8.46,0,0,0,2.06-1.68A17.74,17.74,0,0,0,121.2,41c.61-1,1.16-1.86,1.63-2.74s.88-1.69,1.21-2.42a13.27,13.27,0,0,0,.65-1.61,1.32,1.32,0,0,1,.67-.85,1.51,1.51,0,0,1,.89-.14,1.06,1.06,0,0,1,.72.46,1.25,1.25,0,0,1,.14,1c-.1.29-.26.85-.5,1.68a23.82,23.82,0,0,1-1,2.81,32.93,32.93,0,0,1-1.64,3.24,15,15,0,0,1-2.32,3.06,12.27,12.27,0,0,1-3.1,2.32,8.09,8.09,0,0,1-3.88.93,4.82,4.82,0,0,1-4-1.79,9.86,9.86,0,0,1-1.92-4.48,20.64,20.64,0,0,1-.18-5.81,25.3,25.3,0,0,1,1.28-5.8,14.91,14.91,0,0,1,2.43-4.49,4.16,4.16,0,0,1,3.24-1.78,4.41,4.41,0,0,1,3,1.17,8.36,8.36,0,0,1,2,2.74,9.26,9.26,0,0,1,.81,3.21A3.71,3.71,0,0,1,120.77,34.33ZM116.35,28c-.33.14-.69.74-1.07,1.81a34,34,0,0,0-1.07,3.88,7.55,7.55,0,0,0,1.57-.17,1.74,1.74,0,0,0,1.14-.75,2.73,2.73,0,0,0,.36-1.25,8.53,8.53,0,0,0,0-1.67,5.44,5.44,0,0,0-.35-1.43Q116.64,27.85,116.35,28Z"/><path d="M125.9,17a2.78,2.78,0,0,1,.92-2.38,3.08,3.08,0,0,1,2-.61,3.17,3.17,0,0,1,1.93.79,1.85,1.85,0,0,1,.6,1.85c-.09.57-.25,1.68-.46,3.35s-.42,3.57-.61,5.73-.35,4.41-.5,6.73-.22,4.48-.24,6.45a33.5,33.5,0,0,0,.21,4.84c.16,1.26.49,1.89,1,1.89.29,0,.68-.52,1.18-1.57s1-2.23,1.49-3.56,1-2.62,1.39-3.88.71-2.08.86-2.46a1.08,1.08,0,0,1,.64-.85,1.55,1.55,0,0,1,1-.11,1.38,1.38,0,0,1,.78.5,1,1,0,0,1,.11,1q-.43,1.43-1.14,4a41.11,41.11,0,0,1-1.78,5.06,18.16,18.16,0,0,1-2.57,4.34A4.44,4.44,0,0,1,129.1,50a3.08,3.08,0,0,1-2.88-2,16.69,16.69,0,0,1-1.32-5.17,49.67,49.67,0,0,1-.25-7c.07-2.56.2-5.07.39-7.51s.38-4.68.57-6.7S125.9,18.07,125.9,17Z"/><path d="M175.33,26.71a3.83,3.83,0,0,1,2.32,1.18,3.06,3.06,0,0,1,1.17,2.1q0,1.07-1.56,1.35l-13.75,1c0,.62-.09,1.52-.11,2.71s0,2.49,0,3.91,0,2.88,0,4.35-.11,2.81-.25,4a14.6,14.6,0,0,1-.61,3c-.26.78-.63,1.17-1.1,1.17a3,3,0,0,1-2-.67,5.61,5.61,0,0,1-1.32-1.57,7.83,7.83,0,0,1-.74-1.82,5.75,5.75,0,0,1-.25-1.35q0-3.35.07-6.66c0-2.21.14-4.45.28-6.73l-4.63.5c-.81.09-1.22,0-1.24-.33s.23-.67.78-1.1a11.05,11.05,0,0,1,2.21-1.28,10.44,10.44,0,0,1,3-.86q0-4.48.1-9.15a55.62,55.62,0,0,1,1-9.37q-5.47.21-8.76.36c-2.18.1-3.92.17-5.2.21l-3,.11-2,0a6.35,6.35,0,0,1-3-.57c-.71-.37-1.06-.83-1.06-1.35a1.75,1.75,0,0,1,1.14-1.67,8.43,8.43,0,0,1,2.77-.71,32.17,32.17,0,0,1,3.49-.18,31.65,31.65,0,0,0,3.28-.15q5.06-.5,10.12-1.21t10.15-1.31c3.39-.41,6.8-.7,10.22-.89a92.41,92.41,0,0,1,10.26,0h.07c.57.09,1.22.23,2,.42a10,10,0,0,1,2.1.82A7.21,7.21,0,0,1,193,6.3a2.49,2.49,0,0,1,.71,1.75c0,.67-.52,1.16-1.57,1.5a24.79,24.79,0,0,1-5.27.74q-3.7.26-9.72.36T162.3,11q.21,1.58.42,3.63c.15,1.38.26,2.82.36,4.31s.17,3,.21,4.56.1,3,.15,4.38q2.91-.57,5.91-1A24,24,0,0,1,175.33,26.71Z"/><path d="M187,45a6.22,6.22,0,0,1-4.2-1.35,7.08,7.08,0,0,1-2.17-3.35,10.9,10.9,0,0,1-.36-4.35,12.87,12.87,0,0,1,1.21-4.31A9.72,9.72,0,0,1,184,28.35a5.16,5.16,0,0,1,3.71-1.14,6.66,6.66,0,0,1,4.06,1.5,7.9,7.9,0,0,1,2.28,3.35,11,11,0,0,1,.6,4.23,10.76,10.76,0,0,1-1,4.17,8.94,8.94,0,0,1-2.6,3.21A6.47,6.47,0,0,1,187,45Zm.93-3.21a1.31,1.31,0,0,0,1.28-.74,6,6,0,0,0,.71-2.14,14.7,14.7,0,0,0,.18-2.89,14.15,14.15,0,0,0-.35-2.92,8.28,8.28,0,0,0-.89-2.28,1.65,1.65,0,0,0-1.36-.92,1.42,1.42,0,0,0-1.21.85,7,7,0,0,0-.75,2.14,15.22,15.22,0,0,0-.25,2.81,13.49,13.49,0,0,0,.29,2.85,7.18,7.18,0,0,0,.85,2.25A1.88,1.88,0,0,0,187.94,41.74Z"/><path d="M208.1,27.85a2.4,2.4,0,0,1,1.64-1.14,5.35,5.35,0,0,1,2,0,2.91,2.91,0,0,1,1.49.67.61.61,0,0,1,0,1q-.57.64-2.28,3.06L207.1,37a23.5,23.5,0,0,0,2,4.17c.74,1.16,1.51,1.74,2.32,1.74.28,0,.64-.35,1.06-1.07a19.21,19.21,0,0,0,1.25-2.49q.6-1.43,1.11-2.85c.33-.95.57-1.68.71-2.21a1.27,1.27,0,0,1,.64-1,1.53,1.53,0,0,1,1-.14,1.39,1.39,0,0,1,.82.53,1.13,1.13,0,0,1,.1,1.07c-.09.29-.24.77-.43,1.46s-.44,1.49-.74,2.39-.68,1.83-1.11,2.78A18.72,18.72,0,0,1,214.44,44a9,9,0,0,1-1.71,2,3.14,3.14,0,0,1-2.07.78,5.84,5.84,0,0,1-3.7-1.42,16.2,16.2,0,0,1-3.28-3.64c-.71,1-1.41,2-2.1,3s-1.37,1.82-2,2.63a2.1,2.1,0,0,1-1.32.86,1.43,1.43,0,0,1-1.1-.29,1.51,1.51,0,0,1-.5-1.07,2.24,2.24,0,0,1,.57-1.56q2.28-3.08,4.63-6.84a30.6,30.6,0,0,1-2.28-6c-.14.38-.28.81-.43,1.28l-.42,1.43A1.5,1.5,0,0,1,198,36a1.38,1.38,0,0,1-1,.14,1.25,1.25,0,0,1-.75-.5,1,1,0,0,1,0-1c.15-.38.36-1,.64-1.85l.86-2.57c.33-1,.69-2.09,1.07-3.27V27a1.73,1.73,0,0,1,1.28-1.14,5.06,5.06,0,0,1,2.1-.14,4.8,4.8,0,0,1,2,.67,1.6,1.6,0,0,1,.86,1.39,7.07,7.07,0,0,0,.1,1.82c.12.73.27,1.55.46,2.46.53-1,1-1.78,1.43-2.5S207.81,28.28,208.1,27.85Z"/><path d="M87.87,247.21a16.56,16.56,0,0,1,2,.32,8.89,8.89,0,0,1,2.24.79,6.6,6.6,0,0,1,1.8,1.37,2.76,2.76,0,0,1,.75,1.91c0,.67-.47,1.16-1.4,1.48a14.24,14.24,0,0,1-3.35.61c-1.3.09-2.64.14-4,.14H82.4l-16.06.43c.24,1.49.44,3.27.58,5.33s.26,4.15.36,6.26.15,4.15.18,6.09,0,3.52,0,4.72c0,.43,0,1.18,0,2.26s0,2.32,0,3.71-.07,2.84-.14,4.36-.2,2.89-.36,4.14a18.46,18.46,0,0,1-.65,3.09c-.26.82-.61,1.23-1,1.23a2,2,0,0,1-1-.33,6.66,6.66,0,0,1-1-.75,9.39,9.39,0,0,1-.9-.87,7.14,7.14,0,0,1-.61-.72,7.34,7.34,0,0,1-.8-3.24c-.09-1.44-.12-3-.07-4.61s.15-3.23.29-4.82.22-2.93.22-4q.06-5.68.21-9.4c.1-2.47.2-4.5.33-6.08a34.36,34.36,0,0,1,.43-3.75,21.25,21.25,0,0,1,.54-2.37c-3.84.1-7.67.25-11.49.47s-7.71.32-11.7.32a5,5,0,0,1-2.73-.61c-.63-.41-.94-.8-.94-1.19a1.77,1.77,0,0,1,1.15-1.69,8.94,8.94,0,0,1,2.81-.72,32.44,32.44,0,0,1,3.49-.18,20.13,20.13,0,0,0,3.21-.22q5-.49,10.15-1.22t10.26-1.3c3.43-.38,6.88-.68,10.33-.9A90.88,90.88,0,0,1,87.87,247.21Z"/><path d="M86.29,267.87a2.48,2.48,0,0,1-.18,1.48,3.71,3.71,0,0,1-1,1.22,6,6,0,0,1-1.52.9,7.27,7.27,0,0,1-1.8.5,7.93,7.93,0,0,1-3.52-.35,2.54,2.54,0,0,1-2-2.09,2.75,2.75,0,0,1,1-2.7,6.6,6.6,0,0,1,3.35-1.48,6.67,6.67,0,0,1,3.75.33A2.74,2.74,0,0,1,86.29,267.87Zm-8.21,9.87a2.74,2.74,0,0,1,.9-2.38,2.71,2.71,0,0,1,2-.51,3.2,3.2,0,0,1,1.87.94,2.07,2.07,0,0,1,.58,1.95,32.12,32.12,0,0,0-.54,3.23q-.25,1.95-.33,3.75a17.43,17.43,0,0,0,.11,3.09c.12.87.4,1.3.83,1.3s.63-.37,1-1.11a20.6,20.6,0,0,0,1.19-2.63q.57-1.51,1.08-3a18,18,0,0,0,.65-2.3,1.46,1.46,0,0,1,.72-1,1.32,1.32,0,0,1,1.76.39,1.09,1.09,0,0,1,.11,1.08c-.1.29-.25.83-.47,1.62s-.49,1.67-.82,2.63-.74,2-1.19,3A13.79,13.79,0,0,1,86,290.51a7,7,0,0,1-2,1.84,2.91,2.91,0,0,1-2.37.29,4.33,4.33,0,0,1-2.77-2.13,8.78,8.78,0,0,1-1-3.59,32,32,0,0,1,0-4.47Q78.08,280,78.08,277.74Z"/><path d="M87.65,275.65A4.1,4.1,0,0,1,89,273.16a6.13,6.13,0,0,1,2.2-1.22,3.33,3.33,0,0,1,1.94-.07.81.81,0,0,1,.61,1.11c-.14.68-.31,1.59-.5,2.74s-.36,2.33-.5,3.53-.27,2.34-.36,3.42-.15,1.86-.15,2.34a20.81,20.81,0,0,1,.72-2.09c.29-.72.59-1.43.9-2.12a19.93,19.93,0,0,1,1-1.91,9.65,9.65,0,0,1,.94-1.37,3.26,3.26,0,0,1,1.55-1.12,5.53,5.53,0,0,1,1.94-.39,2.21,2.21,0,0,1,1.48.5A1.19,1.19,0,0,1,101,278a10.15,10.15,0,0,0-.28,1.66c-.1.81-.2,1.7-.29,2.66a20.89,20.89,0,0,1,1.15-2.23q.72-1.23,1.44-2.34c.48-.74.92-1.43,1.33-2.05a15.82,15.82,0,0,1,1-1.37,3.67,3.67,0,0,1,1.52-1.19,4.63,4.63,0,0,1,1.94-.47,2.64,2.64,0,0,1,1.58.47,1.62,1.62,0,0,1,.58,1.55c0,.34-.13.91-.25,1.73s-.28,1.75-.47,2.81-.37,2.16-.54,3.31-.31,2.19-.43,3.13S109,287.34,109,288s.06.93.25.93.68-.33,1.16-1a17.05,17.05,0,0,0,1.4-2.42c.46-.93.89-1.9,1.3-2.91s.7-1.82.9-2.45a1.5,1.5,0,0,1,.68-.9,1.22,1.22,0,0,1,.9-.14,1.24,1.24,0,0,1,.72.5,1.26,1.26,0,0,1,.14,1.05,17,17,0,0,1-1,2.84,31,31,0,0,1-1.83,3.71,22.58,22.58,0,0,1-2.38,3.38,4.53,4.53,0,0,1-2.66,1.73,3.06,3.06,0,0,1-2.42-.36,3.56,3.56,0,0,1-1.29-1.87,10.47,10.47,0,0,1-.47-2.77,22.19,22.19,0,0,1,.07-3.06c.1-1,.22-1.91.36-2.71a12.52,12.52,0,0,1,.43-1.76,3.63,3.63,0,0,0-1.08,1.37q-.72,1.23-1.47,2.7c-.51,1-1,1.94-1.41,2.88s-.72,1.57-.86,1.91v-.07a2.78,2.78,0,0,1-.68,1,4.09,4.09,0,0,1-1.26.86,3.25,3.25,0,0,1-1.34.33c-.4,0-.68-.24-.82-.73a8.53,8.53,0,0,1-.29-2c0-.84-.07-1.66-.07-2.45s0-1.51,0-2.16a5.14,5.14,0,0,0,0-1.19c-.24.1-.51.53-.8,1.3s-.58,1.63-.9,2.59-.58,1.94-.82,3-.41,1.8-.51,2.38a1.85,1.85,0,0,1-1,1.4,3.61,3.61,0,0,1-1.8.47,3,3,0,0,1-1.73-.51,1.61,1.61,0,0,1-.68-1.58,31.18,31.18,0,0,0,0-3.28c-.07-1.36-.14-2.79-.21-4.28s-.11-2.95-.11-4.39A25.63,25.63,0,0,1,87.65,275.65Z"/><path d="M126,280.11a4.84,4.84,0,0,1-1.44,1.3,10.2,10.2,0,0,1-1.87.83,12.25,12.25,0,0,1-2.06.46c-.69.1-1.3.17-1.83.22a23.33,23.33,0,0,0-.25,2.95,14,14,0,0,0,.14,2.59,6.51,6.51,0,0,0,.58,2,1.83,1.83,0,0,0,1.11,1,2.52,2.52,0,0,0,2-.33,9.08,9.08,0,0,0,2.09-1.69,18.13,18.13,0,0,0,1.94-2.52c.62-1,1.18-1.88,1.66-2.77s.88-1.71,1.22-2.45a13.24,13.24,0,0,0,.65-1.62,1.33,1.33,0,0,1,.68-.86,1.46,1.46,0,0,1,.9-.15,1.11,1.11,0,0,1,.72.47,1.27,1.27,0,0,1,.15,1c-.1.29-.27.86-.51,1.7a25,25,0,0,1-1,2.84,31.51,31.51,0,0,1-1.66,3.27,15.68,15.68,0,0,1-2.34,3.1,12.26,12.26,0,0,1-3.13,2.34,8.28,8.28,0,0,1-3.92.94,4.88,4.88,0,0,1-4-1.8,10.06,10.06,0,0,1-1.94-4.54,20.33,20.33,0,0,1-.18-5.87,25.19,25.19,0,0,1,1.3-5.86,14.88,14.88,0,0,1,2.44-4.54,4.24,4.24,0,0,1,3.28-1.8,4.48,4.48,0,0,1,3.06,1.19,8.17,8.17,0,0,1,2,2.77,9.23,9.23,0,0,1,.83,3.24A3.75,3.75,0,0,1,126,280.11Zm-4.47-6.41c-.33.15-.69.76-1.08,1.84a34.68,34.68,0,0,0-1.08,3.92,7.18,7.18,0,0,0,1.59-.18,1.74,1.74,0,0,0,1.15-.75,2.78,2.78,0,0,0,.36-1.26,7.38,7.38,0,0,0,0-1.69,5,5,0,0,0-.36-1.44C121.87,273.75,121.69,273.61,121.49,273.7Z"/><path d="M130.71,269.1c0-.34,0-.66,0-1s0-.58,0-.82a2.79,2.79,0,0,1,.94-2.42,3,3,0,0,1,2-.61,3.17,3.17,0,0,1,1.91.79,1.85,1.85,0,0,1,.61,1.87l-.36,1.88h1.73a3.24,3.24,0,0,1,2,.47,1.27,1.27,0,0,1,.61,1,1.21,1.21,0,0,1-.64,1,3.33,3.33,0,0,1-1.8.43h-2.16c-.2,1.73-.36,3.63-.51,5.72s-.24,4.06-.29,5.9,0,3.39.08,4.61.31,1.84.64,1.84.69-.43,1.19-1.3,1-1.86,1.55-3,1-2.23,1.44-3.31.72-1.81.86-2.19a1.18,1.18,0,0,1,.65-.87,1.51,1.51,0,0,1,1-.1,1.43,1.43,0,0,1,.8.5,1,1,0,0,1,.1,1c-.28,1-.67,2.21-1.15,3.75a30.14,30.14,0,0,1-1.8,4.46,15.31,15.31,0,0,1-2.59,3.75,4.83,4.83,0,0,1-3.6,1.58,2.72,2.72,0,0,1-2.23-1.08,7.26,7.26,0,0,1-1.3-2.84,21.25,21.25,0,0,1-.54-4.07c-.07-1.54-.08-3.12,0-4.75s.14-3.28.28-4.94.27-3.18.36-4.57h-1.72a3,3,0,0,1-1.77-.43,1.33,1.33,0,0,1-.65-.94,1.1,1.1,0,0,1,.54-.93,3.18,3.18,0,0,1,1.88-.43Z"/><path d="M147.05,290.84a6.26,6.26,0,0,1-4.24-1.37,7.1,7.1,0,0,1-2.2-3.38,10.94,10.94,0,0,1-.36-4.39,13.1,13.1,0,0,1,1.22-4.36,9.73,9.73,0,0,1,2.56-3.28,5.18,5.18,0,0,1,3.74-1.15,6.73,6.73,0,0,1,4.11,1.51,8,8,0,0,1,2.3,3.39,11.06,11.06,0,0,1,.61,4.28,10.79,10.79,0,0,1-1,4.21,8.85,8.85,0,0,1-2.63,3.24A6.46,6.46,0,0,1,147.05,290.84Zm.94-3.24a1.3,1.3,0,0,0,1.29-.76,5.83,5.83,0,0,0,.72-2.16,14.91,14.91,0,0,0,.18-2.91,14.46,14.46,0,0,0-.35-3,7.83,7.83,0,0,0-.91-2.3,1.63,1.63,0,0,0-1.36-.93,1.44,1.44,0,0,0-1.23.86,6.83,6.83,0,0,0-.75,2.16,14.72,14.72,0,0,0-.25,2.84,13.66,13.66,0,0,0,.28,2.88,7,7,0,0,0,.87,2.27A1.88,1.88,0,0,0,148,287.6Z"/><path d="M163.11,290.84a6.29,6.29,0,0,1-4.25-1.37,7.1,7.1,0,0,1-2.2-3.38,11.31,11.31,0,0,1-.36-4.39,12.87,12.87,0,0,1,1.23-4.36,9.83,9.83,0,0,1,2.55-3.28,5.22,5.22,0,0,1,3.75-1.15,6.67,6.67,0,0,1,4.1,1.51,7.91,7.91,0,0,1,2.31,3.39,11.06,11.06,0,0,1,.61,4.28,10.63,10.63,0,0,1-1,4.21,8.82,8.82,0,0,1-2.62,3.24A6.48,6.48,0,0,1,163.11,290.84Zm.93-3.24a1.33,1.33,0,0,0,1.3-.76,5.83,5.83,0,0,0,.72-2.16,16.65,16.65,0,0,0,.18-2.91,13.79,13.79,0,0,0-.36-3,8.12,8.12,0,0,0-.9-2.3,1.63,1.63,0,0,0-1.37-.93,1.42,1.42,0,0,0-1.22.86,6.82,6.82,0,0,0-.76,2.16,14.72,14.72,0,0,0-.25,2.84,13.64,13.64,0,0,0,.29,2.88,7.21,7.21,0,0,0,.86,2.27A1.91,1.91,0,0,0,164,287.6Z"/><path d="M173.84,262.62a2.82,2.82,0,0,1,.93-2.42,3.07,3.07,0,0,1,2-.61,3.2,3.2,0,0,1,2,.79,1.88,1.88,0,0,1,.61,1.88c-.1.57-.25,1.7-.47,3.38s-.42,3.61-.61,5.79-.36,4.46-.5,6.81-.23,4.52-.26,6.52a35.57,35.57,0,0,0,.22,4.89c.17,1.27.49,1.91,1,1.91.29,0,.69-.53,1.19-1.59s1-2.25,1.51-3.59,1-2.66,1.41-3.93.72-2.1.86-2.48a1.16,1.16,0,0,1,.65-.87,1.5,1.5,0,0,1,1-.1,1.4,1.4,0,0,1,.79.5,1,1,0,0,1,.11,1c-.29,1-.67,2.31-1.15,4a40.87,40.87,0,0,1-1.8,5.11,18.91,18.91,0,0,1-2.59,4.39,4.5,4.5,0,0,1-3.6,1.87,3.11,3.11,0,0,1-2.92-2.05,16.66,16.66,0,0,1-1.33-5.22,49.28,49.28,0,0,1-.25-7.06q.1-3.89.39-7.59c.19-2.47.39-4.73.58-6.77S173.84,263.67,173.84,262.62Z"/></g></g></svg>